<svg id="svg" version="1.1" xmlns="http://www.w3.org/2000/svg" xmlns:xlink="http://www.w3.org/1999/xlink" width="400" height="400" viewBox="0, 0, 400,400"><g id="svgg"><path id="path0" d="M179.277 40.545 C 177.054 40.622,175.894 40.827,175.699 41.177 C 175.540 41.461,174.367 41.812,173.092 41.956 C 171.729 42.110,170.693 42.432,170.575 42.739 C 170.465 43.025,169.927 43.372,169.378 43.509 C 168.829 43.647,167.804 44.155,167.100 44.637 C 164.552 46.385,161.379 48.820,161.134 49.216 C 160.996 49.440,160.693 49.504,160.460 49.360 C 160.211 49.206,160.148 49.279,160.306 49.536 C 160.643 50.080,155.504 55.146,154.958 54.808 C 154.743 54.675,154.678 54.746,154.813 54.966 C 154.949 55.185,154.731 55.662,154.328 56.026 C 153.926 56.390,153.519 56.546,153.425 56.372 C 153.330 56.197,153.310 56.284,153.381 56.565 C 153.544 57.217,149.998 60.592,149.484 60.274 C 149.272 60.143,149.209 60.215,149.344 60.434 C 149.658 60.941,148.289 62.211,147.855 61.817 C 147.677 61.656,147.639 61.714,147.772 61.947 C 148.084 62.495,144.736 66.048,144.065 65.881 C 143.784 65.810,143.697 65.830,143.872 65.925 C 144.046 66.019,143.890 66.426,143.526 66.828 C 143.162 67.231,142.685 67.449,142.466 67.313 C 142.246 67.178,142.178 67.246,142.313 67.466 C 142.449 67.685,142.231 68.162,141.828 68.526 C 141.426 68.890,141.019 69.046,140.925 68.872 C 140.830 68.697,140.810 68.784,140.881 69.065 C 141.044 69.717,137.498 73.092,136.984 72.774 C 136.772 72.643,136.709 72.715,136.844 72.934 C 137.158 73.441,135.789 74.711,135.355 74.317 C 135.177 74.156,135.139 74.214,135.272 74.447 C 135.584 74.995,132.236 78.548,131.565 78.381 C 131.284 78.310,131.197 78.330,131.372 78.425 C 131.546 78.519,131.390 78.926,131.026 79.328 C 130.662 79.731,130.185 79.949,129.966 79.813 C 129.746 79.678,129.678 79.746,129.813 79.966 C 129.949 80.185,129.731 80.662,129.328 81.026 C 128.926 81.390,128.519 81.546,128.425 81.372 C 128.330 81.197,128.310 81.284,128.381 81.565 C 128.544 82.217,124.998 85.592,124.484 85.274 C 124.272 85.143,124.209 85.215,124.344 85.434 C 124.658 85.941,123.289 87.211,122.855 86.817 C 122.677 86.656,122.639 86.714,122.772 86.947 C 123.084 87.495,119.736 91.048,119.065 90.881 C 118.784 90.810,118.697 90.830,118.872 90.925 C 119.046 91.019,118.890 91.426,118.526 91.828 C 118.162 92.231,117.685 92.449,117.466 92.313 C 117.246 92.178,117.178 92.246,117.313 92.466 C 117.449 92.685,117.231 93.162,116.828 93.526 C 116.426 93.890,116.019 94.046,115.925 93.872 C 115.830 93.697,115.810 93.784,115.881 94.065 C 116.044 94.717,112.498 98.092,111.984 97.774 C 111.772 97.643,111.709 97.715,111.844 97.934 C 112.158 98.441,110.789 99.711,110.355 99.317 C 110.177 99.156,110.139 99.214,110.272 99.447 C 110.584 99.995,107.236 103.548,106.565 103.381 C 106.284 103.310,106.197 103.330,106.372 103.425 C 106.546 103.519,106.390 103.926,106.026 104.328 C 105.662 104.731,105.185 104.949,104.966 104.813 C 104.746 104.678,104.678 104.746,104.813 104.966 C 104.949 105.185,104.731 105.662,104.328 106.026 C 103.926 106.390,103.519 106.546,103.425 106.372 C 103.330 106.197,103.310 106.284,103.381 106.565 C 103.544 107.217,99.998 110.592,99.484 110.274 C 99.272 110.143,99.209 110.215,99.344 110.434 C 99.658 110.941,98.289 112.211,97.855 111.817 C 97.677 111.656,97.639 111.714,97.772 111.947 C 98.084 112.495,94.736 116.048,94.065 115.881 C 93.784 115.810,93.697 115.830,93.872 115.925 C 94.046 116.019,93.890 116.426,93.526 116.828 C 93.162 117.231,92.685 117.449,92.466 117.313 C 92.246 117.178,92.178 117.246,92.313 117.466 C 92.449 117.685,92.231 118.162,91.828 118.526 C 91.426 118.890,91.019 119.046,90.925 118.872 C 90.830 118.697,90.810 118.784,90.881 119.065 C 91.044 119.717,87.498 123.092,86.984 122.774 C 86.772 122.643,86.709 122.715,86.844 122.934 C 87.158 123.441,85.789 124.711,85.355 124.317 C 85.177 124.156,85.148 124.228,85.291 124.477 C 85.437 124.732,84.866 125.580,83.986 126.413 C 83.126 127.228,82.422 128.168,82.422 128.502 C 82.422 128.836,82.070 129.329,81.641 129.597 C 81.211 129.865,80.859 130.347,80.859 130.667 C 80.859 130.988,80.703 131.250,80.511 131.250 C 80.320 131.250,79.879 131.909,79.533 132.715 C 79.186 133.521,78.748 134.443,78.559 134.766 C 77.492 136.587,76.442 140.410,76.746 141.368 C 76.874 141.774,76.708 142.295,76.358 142.586 C 75.554 143.253,75.582 150.521,76.392 151.192 C 76.675 151.427,76.813 151.863,76.699 152.161 C 76.585 152.459,76.719 153.369,76.997 154.183 C 77.275 154.998,77.462 155.871,77.413 156.123 C 77.363 156.375,77.503 156.693,77.724 156.830 C 77.945 156.966,78.125 157.512,78.125 158.043 C 78.125 158.574,78.384 159.108,78.700 159.230 C 79.017 159.351,79.388 160.049,79.525 160.780 C 79.667 161.534,80.009 162.109,80.317 162.109 C 80.615 162.109,80.859 162.363,80.859 162.673 C 80.859 163.472,84.193 167.273,90.582 173.761 C 93.613 176.839,96.094 179.602,96.094 179.901 C 96.094 180.223,96.332 180.353,96.680 180.219 C 97.051 180.077,97.266 180.225,97.266 180.622 C 97.266 181.188,98.768 181.250,112.500 181.250 L 127.734 181.250 127.734 180.176 C 127.734 179.289,125.518 176.861,115.039 166.268 C 108.057 159.210,102.344 153.277,102.344 153.085 C 102.344 152.892,102.176 152.734,101.971 152.734 C 99.998 152.734,98.373 147.585,99.293 144.248 C 99.747 142.602,104.687 137.677,105.179 138.380 C 105.390 138.681,105.421 138.517,105.260 137.950 C 105.029 137.132,105.101 137.061,105.918 137.292 C 106.539 137.467,106.667 137.434,106.313 137.188 C 105.681 136.749,108.435 133.840,109.096 134.249 C 109.316 134.385,109.383 134.313,109.244 134.089 C 109.106 133.865,109.244 133.474,109.552 133.218 C 110.104 132.760,125.781 147.853,125.781 148.844 C 125.781 149.050,126.061 149.219,126.404 149.219 C 126.746 149.219,127.118 149.570,127.231 150.000 C 127.343 150.430,127.569 150.781,127.734 150.781 C 128.151 150.781,131.250 153.921,131.250 154.343 C 131.250 154.532,131.530 154.688,131.873 154.688 C 132.215 154.688,132.587 155.039,132.699 155.469 C 132.812 155.898,133.038 156.250,133.202 156.250 C 133.651 156.250,136.719 159.316,136.719 159.765 C 136.719 159.980,136.971 160.156,137.278 160.156 C 137.586 160.156,137.947 160.499,138.080 160.918 C 138.212 161.336,138.664 161.788,139.082 161.920 C 139.501 162.053,139.844 162.402,139.844 162.695 C 139.844 162.989,140.167 163.331,140.562 163.457 C 140.958 163.582,141.515 164.121,141.800 164.655 C 142.086 165.188,142.542 165.625,142.813 165.625 C 143.085 165.625,143.418 165.977,143.555 166.406 C 143.691 166.836,144.060 167.188,144.375 167.188 C 144.689 167.188,145.040 167.431,145.154 167.728 C 145.268 168.025,148.253 171.189,151.788 174.759 L 158.215 181.250 181.647 181.250 L 205.078 181.250 205.078 180.094 C 205.078 179.026,203.469 176.953,202.641 176.953 C 202.477 176.953,202.344 176.689,202.344 176.367 C 202.344 176.045,202.064 175.781,201.721 175.781 C 201.379 175.781,201.007 175.430,200.894 175.000 C 200.782 174.570,200.459 174.219,200.176 174.219 C 199.893 174.219,199.550 173.867,199.414 173.437 C 199.278 173.008,198.958 172.656,198.704 172.655 C 198.450 172.655,197.891 172.126,197.461 171.481 C 197.031 170.836,196.372 170.209,195.996 170.089 C 195.620 169.968,195.313 169.617,195.313 169.310 C 195.313 169.002,195.032 168.750,194.690 168.750 C 194.348 168.750,193.976 168.398,193.863 167.969 C 193.751 167.539,193.428 167.188,193.145 167.188 C 192.862 167.188,192.532 166.880,192.411 166.504 C 192.291 166.128,191.664 165.469,191.019 165.039 C 190.374 164.609,189.845 164.148,189.845 164.013 C 189.844 163.879,178.857 152.745,165.429 139.271 C 151.863 125.659,141.128 114.588,141.270 114.357 C 141.419 114.117,141.342 114.056,141.089 114.213 C 140.525 114.561,137.011 111.023,137.360 110.458 C 137.504 110.225,137.441 110.147,137.219 110.284 C 136.687 110.613,134.657 108.712,134.882 108.097 C 134.979 107.833,135.256 107.661,135.498 107.715 C 135.740 107.769,135.894 107.677,135.840 107.512 C 135.614 106.816,137.433 105.076,138.144 105.307 C 138.644 105.470,138.714 105.432,138.372 105.185 C 137.762 104.746,145.935 96.340,146.582 96.740 C 146.810 96.881,146.885 96.816,146.749 96.596 C 146.340 95.935,149.249 93.181,149.688 93.813 C 149.934 94.167,149.967 94.039,149.792 93.418 C 149.561 92.601,149.632 92.529,150.450 92.760 C 151.033 92.925,151.186 92.893,150.870 92.673 C 150.502 92.416,150.956 91.741,152.599 90.099 C 154.241 88.456,154.916 88.002,155.173 88.370 C 155.393 88.686,155.425 88.533,155.260 87.950 C 155.029 87.132,155.101 87.061,155.918 87.292 C 156.432 87.437,156.636 87.410,156.381 87.230 C 155.749 86.784,156.796 85.355,157.456 85.763 C 157.738 85.937,157.833 85.896,157.688 85.662 C 157.368 85.144,160.144 82.368,160.662 82.688 C 160.880 82.823,160.940 82.742,160.795 82.507 C 160.400 81.869,162.378 80.064,163.188 80.324 C 163.695 80.487,163.735 80.448,163.349 80.171 C 162.950 79.886,163.349 79.280,165.065 77.565 C 166.780 75.849,167.386 75.450,167.671 75.849 C 167.948 76.235,167.987 76.195,167.824 75.688 C 167.564 74.878,169.369 72.900,170.007 73.295 C 170.242 73.440,170.323 73.380,170.188 73.162 C 169.868 72.644,172.644 69.868,173.162 70.188 C 173.380 70.323,173.440 70.242,173.295 70.007 C 172.900 69.369,174.878 67.564,175.688 67.824 C 176.172 67.980,176.224 67.939,175.869 67.684 C 175.108 67.135,178.713 63.743,180.392 63.429 C 182.577 63.019,185.577 63.541,186.207 64.441 C 186.513 64.877,187.017 65.234,187.327 65.234 C 187.637 65.234,187.891 65.506,187.891 65.838 C 187.891 66.171,188.418 66.742,189.064 67.108 C 189.709 67.474,190.336 68.081,190.457 68.457 C 190.578 68.833,190.909 69.141,191.192 69.141 C 191.474 69.141,191.798 69.492,191.910 69.922 C 192.022 70.352,192.394 70.703,192.737 70.703 C 193.079 70.703,193.359 70.955,193.359 71.263 C 193.359 71.571,193.667 71.922,194.043 72.043 C 194.419 72.164,195.026 72.791,195.392 73.436 C 195.758 74.082,196.309 74.609,196.616 74.609 C 196.923 74.609,197.266 74.961,197.379 75.391 C 197.491 75.820,197.863 76.172,198.206 76.172 C 198.548 76.172,198.828 76.452,198.828 76.794 C 198.828 77.137,199.180 77.509,199.609 77.621 C 200.039 77.734,200.391 78.077,200.391 78.384 C 200.391 78.691,200.918 79.242,201.564 79.608 C 202.209 79.974,202.836 80.581,202.957 80.957 C 203.078 81.333,203.429 81.641,203.737 81.641 C 204.045 81.641,204.297 81.921,204.297 82.263 C 204.297 82.606,204.648 82.978,205.078 83.090 C 205.508 83.202,205.859 83.526,205.859 83.808 C 205.859 84.091,206.167 84.422,206.543 84.543 C 206.919 84.664,207.526 85.291,207.892 85.936 C 208.258 86.582,208.829 87.109,209.162 87.109 C 209.494 87.109,209.766 87.390,209.766 87.732 C 209.766 88.074,210.117 88.446,210.547 88.559 C 210.977 88.671,211.328 89.023,211.328 89.340 C 211.328 89.657,211.680 90.009,212.109 90.121 C 212.539 90.234,212.891 90.577,212.891 90.884 C 212.891 91.191,213.418 91.742,214.064 92.108 C 214.709 92.474,215.336 93.081,215.457 93.457 C 215.578 93.833,215.909 94.141,216.192 94.141 C 216.474 94.141,216.798 94.492,216.910 94.922 C 217.022 95.352,217.394 95.703,217.737 95.703 C 218.079 95.703,218.359 95.955,218.359 96.263 C 218.359 96.571,218.673 96.922,219.056 97.043 C 219.439 97.165,220.064 97.792,220.445 98.437 C 220.826 99.082,221.371 99.609,221.656 99.609 C 221.941 99.609,222.266 99.961,222.379 100.391 C 222.491 100.820,222.843 101.172,223.160 101.172 C 223.477 101.172,223.829 101.523,223.941 101.953 C 224.054 102.383,224.426 102.734,224.768 102.734 C 225.110 102.734,225.391 102.988,225.391 103.298 C 225.391 103.608,225.918 104.174,226.563 104.554 C 227.207 104.935,227.734 105.460,227.734 105.722 C 227.734 105.983,228.067 106.303,228.473 106.432 C 228.880 106.561,229.303 107.012,229.413 107.435 C 229.524 107.857,229.874 108.203,230.191 108.203 C 230.509 108.203,230.860 108.555,230.973 108.984 C 231.085 109.414,231.419 109.766,231.715 109.766 C 232.011 109.766,232.565 110.293,232.946 110.938 C 233.326 111.582,233.892 112.109,234.202 112.109 C 234.512 112.109,234.766 112.390,234.766 112.732 C 234.766 113.074,235.117 113.446,235.547 113.559 C 235.977 113.671,236.328 114.023,236.328 114.340 C 236.328 114.657,236.680 115.009,237.109 115.121 C 237.539 115.234,237.891 115.559,237.891 115.844 C 237.891 116.129,238.418 116.674,239.063 117.054 C 239.707 117.435,240.234 117.960,240.234 118.222 C 240.234 118.483,240.586 118.809,241.016 118.945 C 241.445 119.082,241.797 119.462,241.797 119.789 C 241.797 120.117,242.143 120.476,242.565 120.587 C 242.988 120.697,243.439 121.120,243.568 121.527 C 243.697 121.933,244.017 122.266,244.278 122.266 C 244.540 122.266,245.065 122.793,245.446 123.438 C 245.826 124.082,246.392 124.609,246.702 124.609 C 247.012 124.609,247.266 124.890,247.266 125.232 C 247.266 125.574,247.617 125.946,248.047 126.059 C 248.477 126.171,248.828 126.523,248.828 126.840 C 248.828 127.157,249.180 127.509,249.609 127.621 C 250.039 127.734,250.391 128.059,250.391 128.344 C 250.391 128.629,250.918 129.174,251.563 129.555 C 252.208 129.936,252.835 130.561,252.957 130.944 C 253.078 131.327,253.409 131.641,253.692 131.641 C 253.974 131.641,254.298 131.992,254.410 132.422 C 254.522 132.852,254.874 133.203,255.191 133.203 C 255.509 133.203,255.860 133.555,255.973 133.984 C 256.085 134.414,256.419 134.766,256.715 134.766 C 257.011 134.766,257.565 135.293,257.946 135.938 C 258.326 136.582,258.871 137.109,259.156 137.109 C 259.441 137.109,259.766 137.461,259.879 137.891 C 259.991 138.320,260.343 138.672,260.660 138.672 C 260.977 138.672,261.329 139.023,261.441 139.453 C 261.554 139.883,261.926 140.234,262.268 140.234 C 262.610 140.234,262.891 140.506,262.891 140.838 C 262.891 141.171,263.417 141.742,264.060 142.108 C 264.703 142.474,265.231 142.981,265.232 143.235 C 265.233 143.489,265.567 143.803,265.973 143.932 C 266.380 144.061,266.803 144.512,266.913 144.935 C 267.024 145.357,267.394 145.703,267.737 145.703 C 268.079 145.703,268.359 145.955,268.359 146.263 C 268.359 146.571,268.667 146.922,269.043 147.043 C 269.419 147.164,270.026 147.791,270.392 148.436 C 270.758 149.082,271.329 149.609,271.662 149.609 C 271.994 149.609,272.266 149.890,272.266 150.232 C 272.266 150.574,272.601 150.942,273.011 151.049 C 273.421 151.156,273.844 151.579,273.951 151.989 C 274.058 152.399,274.426 152.734,274.768 152.734 C 275.110 152.734,275.391 152.988,275.391 153.298 C 275.391 153.608,275.918 154.174,276.563 154.554 C 277.207 154.935,277.734 155.460,277.734 155.722 C 277.734 155.983,278.067 156.303,278.473 156.432 C 278.880 156.561,279.303 157.012,279.413 157.435 C 279.524 157.857,279.883 158.203,280.211 158.203 C 280.538 158.203,280.918 158.555,281.055 158.984 C 281.191 159.414,281.517 159.766,281.778 159.766 C 282.040 159.766,282.565 160.293,282.946 160.938 C 283.326 161.582,283.871 162.109,284.156 162.109 C 284.441 162.109,284.766 162.461,284.879 162.891 C 284.991 163.320,285.343 163.672,285.660 163.672 C 285.977 163.672,286.329 164.023,286.441 164.453 C 286.554 164.883,286.926 165.234,287.268 165.234 C 287.610 165.234,287.891 165.506,287.891 165.838 C 287.891 166.171,288.417 166.742,289.060 167.108 C 289.703 167.474,290.231 167.981,290.232 168.235 C 290.233 168.489,290.567 168.803,290.973 168.932 C 291.380 169.061,291.803 169.512,291.913 169.935 C 292.024 170.357,292.383 170.703,292.711 170.703 C 293.038 170.703,293.418 171.055,293.555 171.484 C 293.691 171.914,294.017 172.266,294.278 172.266 C 294.540 172.266,295.065 172.793,295.446 173.438 C 295.826 174.082,296.371 174.609,296.656 174.609 C 296.941 174.609,297.266 174.961,297.379 175.391 C 297.491 175.820,297.843 176.172,298.160 176.172 C 298.477 176.172,298.829 176.523,298.941 176.953 C 299.054 177.383,299.426 177.734,299.768 177.734 C 300.110 177.734,300.391 177.924,300.391 178.156 C 300.391 178.626,303.501 181.641,303.987 181.641 C 304.157 181.641,304.297 181.921,304.297 182.263 C 304.297 182.606,304.643 182.976,305.065 183.087 C 305.488 183.197,305.939 183.620,306.068 184.027 C 306.197 184.433,306.517 184.766,306.778 184.766 C 307.040 184.766,307.565 185.293,307.946 185.938 C 308.326 186.582,308.892 187.109,309.202 187.109 C 309.512 187.109,309.766 187.390,309.766 187.732 C 309.766 188.074,310.117 188.446,310.547 188.559 C 310.977 188.671,311.328 188.994,311.328 189.277 C 311.328 189.560,311.680 189.903,312.109 190.039 C 312.539 190.175,312.891 190.437,312.891 190.621 C 312.891 191.050,316.033 194.141,316.468 194.141 C 316.649 194.141,316.797 194.421,316.797 194.763 C 316.797 195.106,317.143 195.476,317.565 195.587 C 317.988 195.697,318.439 196.120,318.568 196.527 C 318.697 196.933,319.017 197.266,319.278 197.266 C 319.540 197.266,320.065 197.793,320.446 198.438 C 320.826 199.082,321.380 199.609,321.675 199.609 C 321.971 199.609,322.325 199.961,322.461 200.391 C 322.597 200.820,322.940 201.172,323.223 201.172 C 323.506 201.172,323.829 201.523,323.941 201.953 C 324.054 202.383,324.426 202.734,324.768 202.734 C 325.110 202.734,325.391 202.992,325.391 203.307 C 325.391 203.621,325.729 204.060,326.143 204.281 C 327.663 205.095,329.297 208.107,329.297 210.096 C 329.297 212.403,329.078 212.710,323.340 218.433 L 318.750 223.011 318.750 237.795 C 318.750 253.378,318.811 253.928,320.444 253.055 C 320.880 252.821,325.240 248.632,330.132 243.746 C 335.024 238.861,339.299 234.759,339.631 234.631 C 339.963 234.504,340.234 234.232,340.234 234.026 C 340.234 233.821,341.479 232.365,342.999 230.791 C 346.613 227.051,346.604 227.063,347.665 224.902 C 348.166 223.882,348.713 223.047,348.880 223.047 C 349.047 223.047,349.299 222.388,349.440 221.582 C 349.581 220.776,349.937 219.924,350.232 219.689 C 350.574 219.415,350.857 218.001,351.015 215.782 C 351.151 213.870,351.494 211.816,351.778 211.220 C 352.212 210.309,352.204 209.918,351.733 208.791 C 351.425 208.052,351.170 206.782,351.168 205.970 C 351.162 203.136,350.681 200.391,350.191 200.391 C 349.926 200.391,349.598 199.696,349.462 198.847 C 349.326 197.997,348.909 197.124,348.533 196.905 C 348.158 196.687,347.993 196.503,348.167 196.496 C 348.555 196.482,347.435 194.429,346.007 192.535 C 345.421 191.760,345.070 190.998,345.225 190.842 C 345.381 190.687,345.310 190.618,345.069 190.690 C 344.447 190.875,200.305 46.583,200.887 46.359 C 201.151 46.257,201.016 46.189,200.586 46.209 C 200.156 46.228,198.791 45.595,197.551 44.802 C 196.311 44.008,195.032 43.359,194.707 43.359 C 194.382 43.359,194.018 43.103,193.897 42.789 C 193.757 42.424,192.843 42.124,191.361 41.956 C 190.086 41.812,188.916 41.468,188.760 41.192 C 188.441 40.629,184.524 40.361,179.277 40.545 M184.766 83.694 C 184.766 83.964,179.481 89.457,173.022 95.901 C 166.564 102.345,161.096 107.949,160.871 108.354 C 160.367 109.263,184.733 133.984,186.133 133.984 C 186.643 133.984,191.028 129.874,198.611 122.288 C 205.041 115.855,210.472 110.696,210.680 110.825 C 210.888 110.953,210.944 110.874,210.805 110.648 C 210.665 110.423,210.800 110.143,211.104 110.026 C 211.408 109.909,211.596 109.495,211.522 109.106 C 211.448 108.717,211.374 108.287,211.358 108.151 C 211.342 108.015,210.959 107.807,210.508 107.689 C 210.056 107.571,209.791 107.307,209.917 107.102 C 210.168 106.695,209.234 105.740,208.906 106.068 C 208.796 106.178,208.460 105.967,208.161 105.599 C 207.690 105.018,207.695 104.973,208.203 105.266 C 208.569 105.476,208.510 105.285,208.045 104.755 C 207.226 103.821,206.819 103.630,207.278 104.395 C 207.480 104.730,207.367 104.717,206.915 104.350 C 206.554 104.057,206.343 103.682,206.445 103.516 C 206.548 103.349,206.370 102.996,206.050 102.731 C 205.730 102.465,205.469 102.364,205.469 102.507 C 205.469 102.649,205.222 102.539,204.920 102.261 C 204.619 101.984,204.399 101.582,204.432 101.367 C 204.465 101.152,204.272 101.021,204.004 101.074 C 203.735 101.128,203.516 100.996,203.516 100.782 C 203.516 100.238,200.390 97.070,199.853 97.070 C 199.612 97.070,199.414 96.807,199.414 96.484 C 199.414 96.162,199.029 95.730,198.559 95.523 C 198.089 95.317,197.622 94.834,197.522 94.450 C 197.421 94.066,196.927 93.587,196.424 93.385 C 195.920 93.183,195.667 93.007,195.861 92.994 C 196.056 92.980,195.900 92.621,195.516 92.197 C 195.132 91.772,194.665 91.519,194.479 91.634 C 194.293 91.749,194.141 91.641,194.141 91.393 C 194.141 91.146,193.086 89.879,191.797 88.578 C 190.508 87.277,189.453 86.333,189.453 86.481 C 189.453 86.629,189.208 86.523,188.908 86.246 C 188.608 85.969,188.422 85.644,188.494 85.524 C 188.831 84.965,186.258 83.076,185.909 83.626 C 185.663 84.016,185.557 84.035,185.553 83.691 C 185.550 83.423,185.371 83.203,185.156 83.203 C 184.941 83.203,184.766 83.424,184.766 83.694 M194.206 100.650 C 195.595 102.007,195.643 102.134,195.121 103.091 C 194.572 104.099,191.639 110.812,189.645 115.625 C 186.570 123.045,186.522 123.101,184.803 121.327 L 183.544 120.029 185.129 116.949 L 186.714 113.869 183.637 110.791 L 180.559 107.713 177.779 109.130 C 174.433 110.835,174.261 110.846,172.909 109.435 C 171.586 108.054,171.588 108.052,177.077 105.820 C 179.400 104.875,183.795 103.024,186.842 101.707 C 189.890 100.391,192.463 99.292,192.562 99.266 C 192.660 99.240,193.400 99.863,194.206 100.650 M187.116 104.707 C 185.293 105.535,183.753 106.357,183.694 106.534 C 183.575 106.893,187.796 111.187,188.002 110.915 C 188.124 110.753,190.863 104.676,191.292 103.613 C 191.603 102.846,190.681 103.087,187.116 104.707 M205.234 124.730 C 205.260 125.379,205.905 126.263,207.150 127.358 C 208.725 128.745,209.007 129.200,208.908 130.197 C 208.746 131.812,208.211 131.871,206.621 130.448 C 205.880 129.785,204.790 129.144,204.199 129.025 C 203.608 128.906,203.125 128.655,203.125 128.467 C 203.125 128.279,202.851 128.125,202.516 128.125 C 202.181 128.125,202.018 128.305,202.154 128.525 C 202.290 128.745,202.257 128.900,202.080 128.870 C 200.363 128.571,198.438 130.297,198.438 132.134 C 198.438 133.516,201.008 136.328,202.271 136.328 C 202.790 136.328,203.114 136.623,203.195 137.167 C 203.353 138.226,204.698 139.115,204.977 138.344 C 205.081 138.056,206.661 136.323,208.488 134.492 C 211.725 131.248,211.805 131.123,211.604 129.626 C 211.207 126.667,205.122 121.990,205.234 124.730 M217.865 128.359 C 217.737 128.487,217.715 128.808,217.816 129.073 C 217.918 129.337,215.411 132.138,212.247 135.297 L 206.492 141.041 207.326 141.874 L 208.160 142.708 212.771 137.890 C 217.469 132.983,220.139 130.706,220.752 131.085 C 221.604 131.611,220.979 129.875,220.020 129.050 C 218.945 128.126,218.304 127.920,217.865 128.359 M205.376 132.162 C 206.799 133.506,206.391 134.558,204.291 134.962 C 203.297 135.154,200.781 133.158,200.781 132.178 C 200.781 130.234,203.325 130.225,205.376 132.162 M221.047 135.059 C 221.022 135.220,221.022 135.483,221.047 135.645 C 221.092 135.929,219.682 137.500,219.381 137.500 C 219.299 137.500,219.136 137.135,219.019 136.688 C 218.867 136.104,218.552 135.912,217.900 136.004 C 216.801 136.160,216.484 137.535,217.375 138.275 C 217.917 138.724,217.662 139.124,215.245 141.617 C 211.609 145.367,211.696 148.991,215.439 149.707 C 215.986 149.811,216.342 149.806,216.231 149.694 C 216.119 149.583,216.333 149.260,216.705 148.977 C 217.341 148.494,217.336 148.462,216.634 148.450 C 216.222 148.443,215.997 148.326,216.133 148.190 C 216.269 148.054,215.954 147.609,215.434 147.199 C 214.222 146.246,214.456 145.614,217.055 142.804 C 219.390 140.280,219.339 140.295,220.793 141.687 C 221.727 142.582,222.018 142.677,222.642 142.287 C 223.215 141.929,223.425 141.932,223.574 142.299 C 223.680 142.560,223.780 142.409,223.797 141.963 C 223.830 141.111,222.349 139.453,221.557 139.453 C 221.302 139.453,221.094 139.290,221.094 139.091 C 221.094 138.572,223.077 137.082,223.456 137.316 C 223.631 137.424,223.879 137.343,224.007 137.135 C 224.136 136.928,223.879 136.565,223.438 136.328 C 222.996 136.092,222.726 135.750,222.838 135.568 C 222.951 135.387,222.765 135.132,222.427 135.002 C 221.598 134.684,221.103 134.704,221.047 135.059 M224.317 143.865 C 224.281 144.349,224.990 145.301,226.192 146.381 C 227.630 147.674,228.125 148.398,228.125 149.207 C 228.125 150.888,227.267 151.343,226.364 150.141 C 225.585 149.103,222.709 147.552,221.562 147.550 C 219.360 147.547,218.585 147.688,219.080 148.001 C 219.474 148.251,219.377 148.392,218.689 148.566 C 216.288 149.175,218.122 154.612,220.970 155.326 C 221.499 155.459,222.092 155.989,222.288 156.505 C 222.913 158.147,225.188 158.150,225.193 156.509 C 225.194 156.159,226.470 154.667,228.027 153.193 C 231.716 149.701,231.837 148.659,228.904 145.664 C 226.676 143.388,224.420 142.503,224.317 143.865 M224.417 151.227 L 225.814 152.454 224.945 153.379 C 223.817 154.579,222.632 154.406,221.116 152.819 C 218.468 150.048,221.441 148.614,224.417 151.227 M232.946 151.738 C 233.213 152.434,231.264 154.848,227.984 157.885 L 225.586 160.106 226.449 160.984 L 227.312 161.861 230.217 158.860 C 233.606 155.359,234.770 155.018,236.462 157.029 C 237.090 157.776,237.668 158.114,238.059 157.964 C 238.429 157.822,238.674 157.939,238.678 158.259 C 238.683 158.679,238.758 158.671,239.043 158.222 C 239.240 157.910,239.315 157.514,239.209 157.343 C 239.103 157.171,239.246 157.029,239.528 157.025 C 239.876 157.021,239.902 156.928,239.609 156.732 C 239.373 156.574,238.964 156.036,238.700 155.536 C 238.436 155.035,237.707 154.447,237.079 154.228 C 236.451 154.009,235.938 153.698,235.938 153.537 C 235.938 153.376,235.580 152.832,235.142 152.328 C 234.218 151.261,232.596 150.826,232.946 151.738 M239.429 158.640 C 239.034 159.376,239.205 159.659,240.977 161.209 C 242.448 162.496,242.967 163.224,242.963 163.995 C 242.951 166.027,242.407 166.215,240.868 164.720 C 240.087 163.962,238.925 163.227,238.284 163.086 C 237.643 162.946,237.018 162.668,236.895 162.470 C 236.773 162.272,236.375 162.122,236.012 162.137 C 235.474 162.159,235.496 162.226,236.133 162.500 C 236.793 162.784,236.723 162.840,235.679 162.863 C 231.439 162.957,231.834 168.811,236.187 170.385 C 236.886 170.638,237.363 171.000,237.246 171.189 C 237.129 171.379,237.320 171.851,237.671 172.239 C 238.277 172.908,238.496 172.756,241.967 169.250 C 247.075 164.092,247.050 162.856,241.760 158.870 C 240.071 157.598,239.991 157.590,239.429 158.640 M239.317 166.140 L 240.731 167.436 239.684 168.484 C 238.341 169.826,238.222 169.812,236.341 168.082 C 234.672 166.547,234.480 166.067,235.234 165.313 C 236.111 164.436,237.839 164.786,239.317 166.140 M73.088 192.724 C 72.843 193.019,71.558 193.383,70.231 193.533 C 68.904 193.683,67.633 194.028,67.405 194.300 C 67.178 194.571,66.253 195.003,65.349 195.259 C 64.446 195.515,63.471 195.960,63.182 196.249 C 62.893 196.538,62.089 197.067,61.396 197.426 C 60.702 197.785,59.054 199.126,57.733 200.406 C 56.412 201.687,55.187 202.734,55.009 202.734 C 54.832 202.734,54.680 202.954,54.672 203.223 C 54.663 203.491,54.136 204.320,53.500 205.063 C 52.864 205.807,52.344 206.615,52.344 206.858 C 52.344 207.102,52.005 207.607,51.591 207.982 C 51.177 208.357,50.715 209.392,50.565 210.282 C 50.414 211.172,50.057 212.079,49.771 212.298 C 49.454 212.540,49.099 214.210,48.863 216.563 C 48.650 218.690,48.291 220.615,48.066 220.840 C 47.575 221.331,47.490 296.008,47.979 296.779 C 48.299 297.283,304.690 297.551,305.504 297.048 C 305.958 296.768,305.982 220.703,305.528 220.703 C 305.345 220.703,305.092 218.872,304.965 216.634 C 304.757 212.957,304.561 212.117,303.454 210.156 C 303.272 209.834,302.948 209.131,302.734 208.594 C 302.519 208.057,302.162 207.354,301.939 207.031 C 301.716 206.709,301.326 205.962,301.072 205.371 C 300.818 204.780,300.385 204.297,300.110 204.297 C 299.835 204.297,299.609 204.045,299.609 203.736 C 299.609 203.007,295.431 198.828,294.701 198.828 C 294.393 198.828,294.133 198.608,294.124 198.340 C 294.107 197.847,291.661 196.094,290.989 196.094 C 290.789 196.094,290.625 195.940,290.625 195.752 C 290.625 195.564,290.065 195.298,289.381 195.161 C 288.697 195.025,287.849 194.652,287.496 194.332 C 287.144 194.013,285.754 193.637,284.408 193.497 C 282.913 193.340,281.883 193.036,281.759 192.714 C 281.454 191.919,73.748 191.929,73.088 192.724 M97.401 232.079 C 97.655 232.426,98.443 232.838,99.153 232.993 C 99.863 233.149,100.538 233.524,100.654 233.826 C 100.770 234.128,101.068 234.375,101.315 234.375 C 101.563 234.375,102.240 234.814,102.819 235.352 C 103.903 236.357,105.078 236.648,105.078 235.911 C 105.078 235.675,105.458 235.589,105.957 235.712 C 106.440 235.832,106.609 235.827,106.331 235.701 C 105.699 235.413,106.446 234.375,107.287 234.375 C 107.589 234.375,107.936 234.116,108.058 233.800 C 108.179 233.483,108.879 233.112,109.614 232.974 C 110.348 232.836,111.109 232.436,111.306 232.084 C 111.841 231.129,125.217 231.122,125.916 232.078 C 126.170 232.425,126.946 232.835,127.640 232.987 C 128.334 233.139,129.034 233.474,129.197 233.731 C 129.359 233.988,130.020 234.534,130.664 234.945 C 131.309 235.356,132.181 236.130,132.602 236.665 C 133.024 237.200,133.771 238.072,134.262 238.603 C 134.754 239.133,135.156 239.730,135.156 239.929 C 135.156 240.128,135.413 240.547,135.727 240.861 C 136.041 241.175,136.420 242.085,136.569 242.884 C 136.719 243.682,137.119 244.540,137.459 244.789 C 138.391 245.473,138.337 255.469,137.396 256.409 C 137.041 256.765,136.637 257.654,136.500 258.384 C 136.363 259.114,136.005 259.806,135.704 259.922 C 135.403 260.037,135.156 260.375,135.156 260.673 C 135.156 260.971,134.761 261.665,134.277 262.215 C 133.794 262.766,133.043 263.627,132.608 264.128 C 131.293 265.643,129.189 267.188,128.440 267.188 C 128.052 267.188,127.734 267.440,127.734 267.750 C 127.734 268.116,127.122 268.403,125.971 268.576 C 125.001 268.721,124.060 269.103,123.881 269.423 C 123.404 270.275,113.841 270.276,113.160 269.425 C 112.904 269.106,112.002 268.741,111.155 268.614 C 110.308 268.488,109.472 268.129,109.297 267.816 C 109.123 267.504,108.453 267.133,107.810 266.992 C 107.167 266.850,106.641 266.497,106.641 266.206 C 106.641 265.916,106.289 265.566,105.859 265.430 C 105.430 265.293,105.078 265.018,105.078 264.817 C 105.078 264.118,104.002 264.462,102.528 265.634 C 101.711 266.283,100.645 266.914,100.159 267.036 C 99.673 267.158,99.184 267.496,99.072 267.787 C 98.961 268.078,98.236 268.435,97.462 268.580 C 96.689 268.725,95.793 269.106,95.473 269.426 C 94.612 270.288,85.201 270.296,84.720 269.435 C 84.537 269.108,83.593 268.721,82.623 268.576 C 81.653 268.431,80.859 268.175,80.859 268.008 C 80.859 267.840,80.376 267.484,79.785 267.215 C 79.194 266.946,78.447 266.489,78.125 266.200 C 74.756 263.178,72.495 260.267,72.042 258.369 C 71.893 257.741,71.547 256.963,71.273 256.641 C 70.064 255.215,70.109 244.141,71.324 244.141 C 71.627 244.141,71.875 243.783,71.875 243.346 C 71.875 241.235,77.103 234.375,78.712 234.375 C 78.988 234.375,79.306 234.134,79.419 233.839 C 79.532 233.545,80.122 233.179,80.730 233.028 C 81.338 232.876,82.100 232.518,82.422 232.232 C 83.747 231.056,96.558 230.925,97.401 232.079 M73.438 312.062 C 73.438 321.998,73.512 323.382,74.055 323.591 C 75.007 323.956,96.021 323.872,96.249 323.502 C 96.360 323.322,96.474 318.181,96.503 312.076 L 96.555 300.977 84.996 300.873 L 73.438 300.770 73.438 312.062 M86.376 305.469 C 87.079 306.750,91.016 317.181,91.016 317.763 C 91.016 319.850,88.722 318.724,88.011 316.288 L 87.476 314.453 84.769 314.453 L 82.063 314.453 81.588 316.113 C 80.996 318.184,80.575 318.750,79.627 318.750 C 78.506 318.750,78.393 317.899,79.235 315.779 C 82.232 308.232,83.338 305.599,83.699 305.156 C 84.230 304.504,85.957 304.706,86.376 305.469 M107.837 311.914 L 107.832 317.578 108.799 317.578 L 109.766 317.578 109.766 312.532 C 109.766 309.757,109.872 307.208,110.003 306.868 C 110.187 306.387,109.974 306.250,109.041 306.250 L 107.842 306.250 107.837 311.914 M112.331 307.773 C 111.811 307.976,111.720 308.158,112.038 308.354 C 112.783 308.815,112.568 309.766,111.719 309.766 C 110.615 309.766,110.690 311.172,111.810 311.465 C 112.501 311.646,112.582 311.793,112.200 312.175 C 111.524 312.851,111.651 314.825,112.460 316.211 C 113.422 317.860,116.016 318.169,116.016 316.635 C 116.016 315.734,115.925 315.679,115.017 316.024 C 114.356 316.275,114.099 316.272,114.259 316.014 C 114.391 315.800,114.313 315.625,114.086 315.625 C 113.845 315.625,113.672 314.728,113.672 313.477 L 113.672 311.328 115.039 311.328 C 116.169 311.328,116.406 311.185,116.406 310.504 C 116.406 309.792,116.220 309.702,115.036 309.840 C 113.675 309.999,113.667 309.991,113.908 308.711 C 114.163 307.348,113.866 307.171,112.331 307.773 M84.375 308.301 C 84.375 308.354,84.024 309.321,83.595 310.449 L 82.816 312.500 84.572 312.500 C 86.574 312.500,86.684 312.234,85.700 309.774 C 85.214 308.560,84.376 307.628,84.375 308.301 M100.879 309.665 C 99.493 310.135,100.398 311.336,101.951 311.088 C 103.583 310.827,104.688 311.337,104.688 312.353 C 104.688 312.729,104.167 312.891,102.958 312.891 C 101.555 312.891,101.076 313.085,100.419 313.920 C 99.717 314.813,99.198 317.338,99.851 316.685 C 99.984 316.552,100.344 316.695,100.652 317.002 C 101.036 317.387,102.025 317.546,103.828 317.513 L 106.445 317.464 106.367 313.947 C 106.324 312.012,106.131 310.272,105.940 310.080 C 105.567 309.707,101.692 309.389,100.879 309.665 M117.458 309.676 C 115.870 310.026,116.940 311.137,118.761 311.028 C 119.722 310.971,120.753 311.085,121.053 311.282 C 121.942 311.866,121.245 312.891,119.960 312.891 C 117.879 312.891,116.979 313.464,116.873 314.857 C 116.716 316.915,117.646 317.587,120.541 317.507 L 122.995 317.440 123.119 313.959 C 123.269 309.725,121.906 308.694,117.458 309.676 M124.902 309.644 C 124.133 309.845,124.008 310.371,124.637 310.759 C 124.891 310.917,124.957 311.601,124.803 312.507 C 124.400 314.894,124.941 317.578,125.826 317.578 C 126.475 317.578,126.563 317.264,126.563 314.922 C 126.563 311.984,126.933 311.328,128.594 311.328 C 129.195 311.328,129.688 311.131,129.688 310.890 C 129.688 310.572,129.829 310.568,130.200 310.877 C 130.493 311.120,131.331 311.203,132.150 311.070 C 133.657 310.825,134.766 311.369,134.766 312.353 C 134.766 312.726,134.252 312.891,133.081 312.891 C 130.182 312.891,128.663 315.231,130.518 316.839 C 131.163 317.399,131.934 317.549,133.971 317.511 L 136.595 317.463 136.502 314.298 C 136.452 312.557,136.392 310.925,136.369 310.671 C 136.290 309.778,132.214 309.178,130.785 309.849 C 130.422 310.019,130.030 310.004,129.914 309.816 C 129.631 309.358,127.656 309.367,127.086 309.828 C 126.799 310.059,126.539 310.044,126.379 309.785 C 126.115 309.358,126.028 309.350,124.902 309.644 M104.795 314.746 C 104.267 316.140,102.344 317.118,102.344 315.993 C 102.344 315.765,102.168 315.688,101.953 315.820 C 101.401 316.161,101.466 315.097,102.031 314.531 C 102.820 313.743,105.107 313.920,104.795 314.746 M121.297 314.973 C 120.969 315.473,120.818 316.000,120.962 316.144 C 121.106 316.288,120.777 316.406,120.230 316.406 C 118.755 316.406,117.970 315.313,118.937 314.606 C 120.300 313.609,122.015 313.876,121.297 314.973 M134.860 315.045 C 134.757 315.585,134.490 316.140,134.268 316.277 C 134.015 316.433,133.981 316.322,134.177 315.978 C 134.430 315.535,134.389 315.523,133.964 315.918 C 132.722 317.070,130.978 315.917,132.035 314.643 C 132.920 313.577,135.082 313.885,134.860 315.045 M48.524 327.952 C 47.530 328.648,47.425 329.658,48.188 331.172 C 48.481 331.752,48.827 333.807,48.957 335.738 C 49.111 338.014,49.381 339.389,49.726 339.645 C 50.019 339.862,50.375 340.627,50.518 341.346 C 50.660 342.065,51.305 343.436,51.951 344.393 C 52.597 345.350,53.125 346.241,53.125 346.374 C 53.125 346.628,53.923 347.530,55.371 348.912 C 55.854 349.373,56.250 349.982,56.250 350.266 C 56.250 350.549,56.510 350.781,56.827 350.781 C 57.144 350.781,57.692 351.221,58.044 351.758 C 58.396 352.295,58.830 352.734,59.009 352.734 C 59.188 352.734,59.814 353.178,60.399 353.720 C 60.984 354.263,61.872 354.809,62.372 354.935 C 62.872 355.060,63.281 355.392,63.281 355.672 C 63.281 355.960,63.947 356.294,64.813 356.440 C 65.656 356.582,66.433 356.927,66.540 357.207 C 66.647 357.486,67.584 357.838,68.621 357.989 C 69.659 358.140,70.947 358.558,71.484 358.917 C 72.967 359.909,282.666 359.929,283.221 358.938 C 283.453 358.523,284.371 358.216,285.892 358.044 C 287.290 357.886,288.291 357.570,288.414 357.248 C 288.527 356.954,289.170 356.593,289.844 356.445 C 290.517 356.297,291.157 355.945,291.266 355.662 C 291.374 355.380,291.883 355.043,292.397 354.914 C 292.911 354.785,294.343 353.723,295.580 352.553 C 297.183 351.037,297.926 350.562,298.170 350.897 C 298.395 351.207,298.435 351.131,298.288 350.675 C 298.157 350.269,298.392 349.622,298.855 349.112 C 300.523 347.276,300.690 347.046,300.942 346.227 C 301.085 345.764,301.459 345.286,301.773 345.166 C 302.087 345.045,302.344 344.759,302.344 344.531 C 302.344 344.302,302.636 343.462,302.993 342.663 C 304.498 339.295,304.749 338.299,304.962 334.853 C 305.085 332.860,305.337 331.136,305.523 331.021 C 306.129 330.647,305.883 328.425,305.176 327.888 C 304.054 327.036,49.740 327.100,48.524 327.952 " stroke="none" fill="#1b4464" fill-rule="evenodd"></path><path id="path1" d="M185.742 102.725 C 182.305 104.177,177.939 106.028,176.040 106.839 L 172.588 108.312 173.572 109.297 L 174.556 110.281 177.277 108.851 C 180.822 106.988,180.584 106.929,184.189 110.558 L 187.305 113.694 185.710 116.798 L 184.115 119.901 185.189 120.930 L 186.264 121.960 186.829 120.843 C 187.140 120.229,189.091 115.739,191.166 110.865 L 194.938 102.004 193.935 101.002 C 192.655 99.721,193.053 99.638,185.742 102.725 M190.397 106.962 C 187.939 112.430,188.273 112.271,185.347 109.371 C 182.105 106.158,182.023 106.370,187.402 104.069 C 192.845 101.740,192.774 101.672,190.397 106.962 M159.578 109.454 C 159.261 110.228,159.654 111.053,160.183 110.726 C 160.383 110.602,160.547 110.723,160.547 110.995 C 160.547 111.650,183.251 134.368,183.910 134.372 C 184.191 134.374,184.320 134.538,184.197 134.738 C 183.864 135.277,185.556 135.694,186.055 135.195 C 186.367 134.883,186.270 134.766,185.701 134.766 C 184.880 134.766,160.587 110.755,160.103 109.466 C 159.866 108.832,159.832 108.831,159.578 109.454 M197.849 123.926 L 186.914 134.961 197.949 124.026 C 208.204 113.864,209.160 112.891,208.884 112.891 C 208.829 112.891,203.863 117.856,197.849 123.926 M203.685 125.549 C 203.465 126.097,203.635 126.484,204.329 127.013 C 206.047 128.322,207.808 130.265,207.816 130.859 C 207.823 131.354,207.879 131.359,208.173 130.895 C 208.794 129.914,206.482 126.563,205.184 126.563 C 204.897 126.563,204.510 126.167,204.323 125.684 C 204.004 124.855,203.967 124.847,203.685 125.549 M197.501 130.921 C 196.793 131.932,196.683 132.813,197.266 132.813 C 197.480 132.813,197.656 132.496,197.656 132.109 C 197.656 131.723,197.864 131.198,198.118 130.944 C 198.373 130.690,198.479 130.380,198.354 130.255 C 198.229 130.130,197.845 130.430,197.501 130.921 M215.301 130.984 C 214.109 132.253,214.240 132.600,215.453 131.386 C 216.003 130.836,216.385 130.317,216.301 130.234 C 216.217 130.150,215.767 130.487,215.301 130.984 M202.508 131.861 C 202.844 132.197,203.299 132.360,203.519 132.224 C 204.110 131.859,203.588 131.250,202.683 131.250 C 201.970 131.250,201.954 131.307,202.508 131.861 M219.311 132.520 L 218.164 133.789 219.434 132.642 C 220.132 132.011,220.703 131.439,220.703 131.372 C 220.703 131.070,220.381 131.336,219.311 132.520 M203.723 132.402 C 203.597 132.606,203.862 132.970,204.311 133.211 C 205.007 133.583,205.053 133.746,204.622 134.305 C 204.255 134.779,204.357 134.754,204.990 134.214 C 205.811 133.513,205.825 133.422,205.216 132.749 C 204.492 131.949,204.065 131.850,203.723 132.402 M197.483 133.558 C 197.362 133.754,197.376 134.208,197.514 134.568 C 197.714 135.089,197.832 135.116,198.095 134.701 C 198.335 134.322,198.427 134.407,198.432 135.011 C 198.435 135.468,198.701 136.061,199.023 136.328 C 199.346 136.596,199.609 136.705,199.609 136.571 C 199.609 136.438,199.961 136.680,200.391 137.109 C 200.820 137.539,201.310 137.891,201.478 137.891 C 201.647 137.891,202.096 138.418,202.477 139.063 C 202.917 139.807,203.482 140.231,204.026 140.224 C 204.822 140.214,204.796 140.137,203.664 139.150 C 202.993 138.565,202.340 137.778,202.211 137.402 C 202.083 137.026,201.752 136.718,201.477 136.717 C 200.772 136.714,198.438 134.451,198.438 133.769 C 198.438 133.141,197.825 133.005,197.483 133.558 M214.962 136.844 C 214.821 137.072,214.925 137.105,215.216 136.925 C 215.573 136.705,215.641 136.834,215.463 137.396 C 215.313 137.867,215.448 138.363,215.807 138.661 C 216.132 138.931,216.303 139.305,216.186 139.493 C 216.070 139.681,216.248 139.730,216.581 139.602 C 217.273 139.337,217.370 138.831,216.797 138.477 C 216.582 138.344,216.406 137.835,216.406 137.347 C 216.406 136.441,215.422 136.099,214.962 136.844 M211.440 140.117 C 210.964 140.611,210.717 141.016,210.891 141.016 C 211.272 141.016,212.693 139.497,212.465 139.333 C 212.377 139.270,211.915 139.623,211.440 140.117 M205.598 141.461 C 205.829 143.995,207.651 144.567,209.440 142.667 C 210.579 141.457,210.609 141.377,209.680 142.028 C 209.096 142.438,208.613 142.905,208.606 143.066 C 208.569 143.941,206.255 142.284,205.741 141.016 C 205.610 140.693,205.546 140.894,205.598 141.461 M218.815 141.838 C 218.533 142.290,218.468 142.557,218.672 142.431 C 218.876 142.305,219.516 142.641,220.095 143.178 C 221.665 144.633,222.165 143.891,220.660 142.339 C 219.142 140.772,219.432 140.851,218.815 141.838 M212.369 143.377 C 210.785 144.918,211.001 148.829,212.721 149.779 C 213.137 150.008,213.617 150.415,213.789 150.684 C 213.961 150.952,214.394 151.172,214.751 151.172 C 215.188 151.172,214.780 150.542,213.504 149.247 C 211.419 147.130,211.109 144.763,212.759 143.556 C 213.153 143.268,213.388 142.953,213.281 142.856 C 213.174 142.759,212.763 142.993,212.369 143.377 M216.449 144.163 C 215.935 144.591,215.597 145.024,215.698 145.125 C 215.800 145.227,216.295 144.871,216.798 144.334 C 217.894 143.168,217.737 143.091,216.449 144.163 M222.825 144.575 C 222.677 144.814,222.798 145.163,223.094 145.350 C 223.391 145.538,223.462 145.694,223.253 145.697 C 223.044 145.700,223.308 146.002,223.839 146.367 C 224.370 146.732,225.036 147.350,225.320 147.741 C 225.603 148.131,226.003 148.347,226.208 148.220 C 226.414 148.093,226.550 148.134,226.510 148.311 C 226.395 148.826,227.004 150.000,227.386 150.000 C 228.644 150.000,226.173 146.580,224.156 145.529 C 223.654 145.268,223.286 144.848,223.340 144.597 C 223.464 144.019,223.176 144.007,222.825 144.575 M216.667 149.870 C 215.320 151.216,218.368 157.406,219.908 156.454 C 220.131 156.316,220.489 156.664,220.703 157.227 C 220.917 157.790,221.268 158.141,221.484 158.008 C 221.699 157.875,221.875 158.022,221.875 158.334 C 221.875 158.646,222.139 159.002,222.461 159.126 C 223.165 159.396,224.219 159.044,224.219 158.538 C 224.219 158.322,223.932 158.329,223.508 158.556 C 222.931 158.865,222.668 158.719,222.118 157.789 C 221.745 157.157,221.582 156.634,221.755 156.625 C 221.929 156.617,221.543 156.378,220.898 156.094 C 218.439 155.010,216.530 152.288,216.978 150.504 C 217.208 149.586,217.123 149.413,216.667 149.870 M220.898 150.781 C 220.763 151.001,221.076 151.172,221.615 151.172 C 222.142 151.172,222.678 151.447,222.807 151.783 C 222.936 152.118,223.218 152.284,223.435 152.150 C 223.651 152.016,223.828 152.093,223.828 152.321 C 223.828 152.548,224.113 152.734,224.462 152.734 C 225.324 152.734,224.495 151.726,222.997 150.951 C 221.719 150.290,221.227 150.250,220.898 150.781 M231.094 153.555 C 230.582 154.581,230.577 154.693,231.065 154.288 C 231.382 154.026,231.641 153.583,231.641 153.305 C 231.641 153.027,231.860 152.711,232.129 152.602 C 232.471 152.464,232.480 152.396,232.158 152.375 C 231.905 152.358,231.426 152.889,231.094 153.555 M233.594 156.641 C 233.139 156.935,233.253 157.021,234.105 157.025 C 234.709 157.029,235.110 157.181,234.996 157.365 C 234.795 157.691,235.974 158.944,237.072 159.573 C 237.465 159.797,237.531 159.741,237.305 159.375 C 237.093 159.033,237.141 158.958,237.450 159.149 C 237.704 159.306,237.863 159.661,237.803 159.938 C 237.744 160.215,238.618 161.272,239.746 162.288 C 240.874 163.304,241.797 164.404,241.797 164.732 C 241.797 165.212,241.910 165.236,242.366 164.857 C 242.996 164.335,242.929 164.209,240.812 161.955 C 240.162 161.264,239.307 160.575,238.912 160.423 C 238.465 160.251,238.262 159.882,238.375 159.449 C 238.500 158.971,238.324 158.734,237.816 158.696 C 237.409 158.665,236.573 158.102,235.959 157.445 C 234.752 156.153,234.488 156.063,233.594 156.641 M224.372 160.774 C 224.503 161.114,224.609 161.476,224.609 161.578 C 224.609 161.681,224.785 161.656,225.000 161.523 C 225.215 161.391,225.391 161.550,225.391 161.877 C 225.391 162.205,225.745 162.662,226.177 162.894 C 227.179 163.430,227.098 162.558,226.074 161.794 C 225.698 161.514,225.391 161.030,225.391 160.720 C 225.391 160.410,225.108 160.156,224.763 160.156 C 224.351 160.156,224.217 160.369,224.372 160.774 M231.738 165.061 C 230.926 165.945,231.228 169.442,232.072 168.920 C 232.265 168.801,232.422 168.982,232.422 169.323 C 232.422 169.663,232.861 170.108,233.398 170.313 C 233.936 170.517,234.375 170.836,234.375 171.021 C 234.375 171.207,234.814 171.559,235.352 171.804 C 235.889 172.049,236.328 172.516,236.328 172.843 C 236.328 173.170,236.548 173.394,236.816 173.340 C 237.085 173.286,237.261 173.462,237.207 173.730 C 237.153 173.999,237.285 174.219,237.500 174.219 C 238.191 174.219,237.916 173.251,237.077 172.726 C 236.629 172.447,236.355 171.979,236.467 171.686 C 236.592 171.361,236.262 170.997,235.621 170.752 C 233.413 169.907,231.156 166.657,232.112 165.700 C 232.331 165.482,232.446 165.129,232.368 164.916 C 232.288 164.697,232.016 164.759,231.738 165.061 M235.645 165.493 C 235.376 165.601,235.156 165.846,235.156 166.036 C 235.156 166.226,235.424 166.279,235.750 166.154 C 236.955 165.692,239.118 167.647,238.358 168.510 C 237.708 169.248,237.715 169.249,238.770 168.570 C 240.171 167.668,240.129 167.409,238.386 166.225 C 236.921 165.230,236.546 165.129,235.645 165.493 M72.656 312.843 C 72.656 321.590,72.762 323.820,73.192 324.177 C 73.572 324.493,77.054 324.590,85.203 324.512 L 96.680 324.402 85.059 324.310 L 73.438 324.219 73.438 313.086 C 73.438 305.924,73.298 301.953,73.047 301.953 C 72.796 301.953,72.656 305.843,72.656 312.843 M83.618 306.348 C 83.427 306.831,82.288 309.578,81.088 312.451 C 78.566 318.492,78.701 317.969,79.656 317.969 C 80.207 317.969,80.575 317.460,81.043 316.050 C 81.768 313.870,82.092 313.670,84.895 313.678 C 87.444 313.685,87.821 313.938,88.443 316.053 C 88.813 317.310,89.175 317.807,89.787 317.898 C 90.939 318.070,90.924 318.004,88.281 311.491 C 86.992 308.314,85.938 305.659,85.938 305.592 C 85.938 304.970,83.900 305.634,83.618 306.348 M86.097 309.656 C 87.454 312.913,87.463 312.891,84.766 312.891 C 82.040 312.891,82.059 312.944,83.473 309.324 C 84.656 306.295,84.698 306.300,86.097 309.656 M101.270 311.999 C 101.860 312.088,102.827 312.088,103.418 311.999 C 104.009 311.909,103.525 311.836,102.344 311.836 C 101.162 311.836,100.679 311.909,101.270 311.999 M117.188 311.939 C 118.581 312.246,121.094 312.300,121.094 312.022 C 121.094 311.855,120.083 311.739,118.848 311.764 C 117.612 311.789,116.865 311.868,117.188 311.939 M127.583 312.039 C 127.474 312.215,127.903 312.283,128.536 312.190 C 129.169 312.097,129.688 311.953,129.688 311.870 C 129.688 311.572,127.776 311.726,127.583 312.039 M131.159 312.002 C 131.861 312.089,132.916 312.087,133.503 311.998 C 134.090 311.909,133.516 311.838,132.227 311.840 C 130.938 311.842,130.457 311.915,131.159 312.002 M104.395 317.969 C 104.482 318.291,104.979 318.587,105.499 318.627 C 106.245 318.684,106.280 318.653,105.664 318.484 C 105.234 318.366,104.738 318.070,104.560 317.826 C 104.347 317.533,104.291 317.582,104.395 317.969 M117.188 317.961 C 117.188 318.892,121.144 318.983,121.327 318.057 C 121.381 317.783,121.336 317.739,121.227 317.959 C 120.971 318.475,117.969 318.484,117.969 317.969 C 117.969 317.754,117.793 317.578,117.578 317.578 C 117.363 317.578,117.188 317.751,117.188 317.961 M101.860 318.636 C 102.346 318.729,103.049 318.726,103.423 318.628 C 103.796 318.530,103.398 318.454,102.539 318.458 C 101.680 318.462,101.374 318.542,101.860 318.636 M113.969 318.636 C 114.455 318.729,115.158 318.726,115.532 318.628 C 115.905 318.530,115.508 318.454,114.648 318.458 C 113.789 318.462,113.483 318.542,113.969 318.636 M131.938 318.636 C 132.424 318.729,133.127 318.726,133.501 318.628 C 133.874 318.530,133.477 318.454,132.617 318.458 C 131.758 318.462,131.452 318.542,131.938 318.636 " stroke="none" fill="#e2e9ee" fill-rule="evenodd"></path><path id="path2" d="M171.387 96.478 C 170.122 97.807,169.965 98.331,171.123 97.359 C 171.824 96.772,172.892 95.277,172.572 95.331 C 172.511 95.342,171.978 95.858,171.387 96.478 M191.730 102.734 C 191.607 103.271,191.385 104.062,191.236 104.492 C 191.088 104.922,191.252 104.780,191.601 104.177 C 191.950 103.573,192.172 102.782,192.095 102.419 C 191.994 101.947,191.889 102.038,191.730 102.734 M162.276 105.643 C 161.830 106.084,161.315 106.709,161.130 107.031 C 160.946 107.354,161.386 107.048,162.108 106.352 C 162.830 105.656,163.345 105.032,163.253 104.964 C 163.161 104.896,162.721 105.202,162.276 105.643 M182.837 106.261 C 182.792 107.355,187.806 111.966,188.375 111.353 C 188.773 110.924,188.767 110.880,188.341 111.122 C 187.764 111.450,183.775 107.827,183.192 106.445 C 182.966 105.910,182.854 105.852,182.837 106.261 M183.789 110.547 C 185.498 112.266,186.984 113.672,187.091 113.672 C 187.198 113.672,185.888 112.266,184.180 110.547 C 182.471 108.828,180.985 107.422,180.878 107.422 C 180.770 107.422,182.080 108.828,183.789 110.547 M173.523 109.583 C 174.108 110.198,174.656 110.622,174.741 110.526 C 174.827 110.430,174.349 109.927,173.679 109.409 L 172.461 108.466 173.523 109.583 M160.267 110.227 C 160.295 110.588,160.427 110.816,160.560 110.734 C 160.865 110.545,184.449 134.171,184.201 134.418 C 184.100 134.519,184.318 134.625,184.685 134.654 C 185.051 134.682,182.514 131.888,179.045 128.444 C 175.577 125.001,169.921 119.345,166.477 115.877 C 163.034 112.408,160.239 109.866,160.267 110.227 M197.929 131.152 C 197.412 132.074,197.292 133.559,197.749 133.383 C 198.020 133.278,198.261 132.668,198.284 132.026 C 198.326 130.849,198.230 130.615,197.929 131.152 M205.170 132.642 C 205.694 133.264,205.743 133.554,205.385 133.912 C 205.130 134.166,205.023 134.375,205.147 134.375 C 206.032 134.375,206.170 133.257,205.370 132.579 C 204.494 131.838,204.494 131.838,205.170 132.642 M207.401 136.230 L 206.055 137.695 207.520 136.349 C 208.883 135.096,209.164 134.766,208.866 134.766 C 208.800 134.766,208.141 135.425,207.401 136.230 M214.641 136.630 C 213.736 137.405,212.302 139.063,212.537 139.062 C 212.624 139.062,213.377 138.359,214.211 137.500 C 215.794 135.867,215.987 135.478,214.641 136.630 M218.368 141.706 C 216.430 143.841,215.954 144.680,217.682 142.912 C 219.064 141.499,219.569 141.196,219.963 141.545 C 220.356 141.891,220.353 141.838,219.953 141.309 C 219.327 140.482,219.524 140.432,218.368 141.706 M214.068 141.779 C 213.534 142.189,213.183 142.602,213.287 142.696 C 213.391 142.790,213.912 142.451,214.445 141.941 C 215.607 140.830,215.412 140.746,214.068 141.779 M214.031 149.766 C 214.259 150.042,214.368 150.346,214.271 150.442 C 214.175 150.539,214.440 150.643,214.861 150.675 C 215.930 150.756,215.808 150.283,214.617 149.730 C 213.807 149.355,213.695 149.361,214.031 149.766 M219.430 155.144 C 219.697 155.469,219.837 155.814,219.742 155.909 C 219.646 156.005,219.912 156.083,220.331 156.083 C 221.300 156.083,221.300 156.083,220.020 155.250 C 219.242 154.744,219.079 154.715,219.430 155.144 M237.891 165.733 C 237.891 165.808,238.462 166.287,239.160 166.798 C 239.946 167.373,240.219 167.468,239.876 167.046 C 239.356 166.405,237.891 165.436,237.891 165.733 M236.340 171.754 C 236.333 172.010,236.507 172.330,236.725 172.465 C 236.943 172.600,237.028 172.862,236.914 173.047 C 236.800 173.232,236.869 173.484,237.069 173.608 C 237.539 173.899,237.401 173.066,236.813 172.070 C 236.559 171.641,236.347 171.498,236.340 171.754 M237.891 173.633 C 237.891 173.955,238.066 174.219,238.281 174.219 C 238.496 174.219,238.672 173.955,238.672 173.633 C 238.672 173.311,238.496 173.047,238.281 173.047 C 238.066 173.047,237.891 173.311,237.891 173.633 M97.045 312.695 C 97.045 318.281,97.100 320.512,97.167 317.653 C 97.234 314.793,97.234 310.223,97.167 307.496 C 97.100 304.770,97.045 307.109,97.045 312.695 M83.838 305.390 C 83.716 305.587,84.069 305.660,84.624 305.554 C 85.230 305.438,85.781 305.577,86.009 305.904 C 86.322 306.352,86.360 306.344,86.230 305.859 C 86.054 305.204,84.180 304.836,83.838 305.390 M83.496 312.783 C 84.194 312.869,85.337 312.869,86.035 312.783 C 86.733 312.696,86.162 312.625,84.766 312.625 C 83.369 312.625,82.798 312.696,83.496 312.783 M83.496 313.954 C 84.194 314.041,85.337 314.041,86.035 313.954 C 86.733 313.868,86.162 313.797,84.766 313.797 C 83.369 313.797,82.798 313.868,83.496 313.954 M88.928 318.066 C 89.027 318.228,89.439 318.359,89.844 318.359 C 90.248 318.359,90.660 318.228,90.760 318.066 C 90.860 317.905,90.447 317.773,89.844 317.773 C 89.240 317.773,88.828 317.905,88.928 318.066 M108.984 317.969 L 108.008 318.281 109.082 318.320 C 109.673 318.342,110.156 318.184,110.156 317.969 C 110.156 317.754,110.112 317.596,110.059 317.617 C 110.005 317.638,109.521 317.797,108.984 317.969 M121.484 318.066 C 121.484 318.228,121.826 318.359,122.243 318.359 C 122.660 318.359,123.082 318.228,123.182 318.066 C 123.281 317.905,122.940 317.773,122.424 317.773 C 121.907 317.773,121.484 317.905,121.484 318.066 M133.774 317.993 C 133.650 318.194,134.115 318.359,134.808 318.359 C 136.162 318.359,136.173 318.044,134.827 317.785 C 134.372 317.698,133.899 317.791,133.774 317.993 " stroke="none" fill="#84a6b9" fill-rule="evenodd"></path><path id="path3" d="M172.559 95.905 C 165.952 102.569,160.547 108.113,160.547 108.224 C 160.547 108.336,166.031 102.933,172.733 96.218 C 179.436 89.503,184.841 83.959,184.745 83.899 C 184.649 83.838,179.165 89.241,172.559 95.905 M187.891 101.367 C 187.354 101.674,187.090 101.925,187.305 101.925 C 187.520 101.925,188.135 101.674,188.672 101.367 C 189.209 101.060,189.473 100.809,189.258 100.809 C 189.043 100.809,188.428 101.060,187.891 101.367 M193.423 106.071 C 192.768 107.508,192.893 107.814,193.601 106.508 C 193.931 105.899,194.129 105.327,194.039 105.237 C 193.950 105.148,193.673 105.523,193.423 106.071 M183.374 106.289 C 183.127 106.690,187.336 111.328,187.947 111.328 C 188.099 111.328,187.175 110.329,185.895 109.107 C 184.597 107.870,183.653 106.659,183.763 106.373 C 184.002 105.750,183.742 105.694,183.374 106.289 M172.321 107.942 C 171.989 108.341,172.182 108.726,173.152 109.602 L 174.414 110.742 173.304 109.512 C 172.262 108.356,172.238 108.256,172.914 107.864 C 173.309 107.634,173.435 107.440,173.192 107.434 C 172.950 107.427,172.558 107.656,172.321 107.942 M179.846 107.873 C 179.665 108.166,179.739 108.217,180.058 108.020 C 180.381 107.821,181.644 108.774,183.732 110.792 L 186.914 113.867 183.798 110.645 C 180.566 107.302,180.310 107.122,179.846 107.873 M188.735 109.196 C 188.081 110.633,188.206 110.939,188.913 109.633 C 189.244 109.024,189.441 108.452,189.352 108.362 C 189.262 108.273,188.985 108.648,188.735 109.196 M160.738 109.766 C 161.127 110.776,185.375 134.766,186.008 134.766 C 186.338 134.766,192.266 129.130,199.181 122.242 C 206.096 115.355,211.438 109.895,211.053 110.109 C 210.667 110.323,205.079 115.782,198.635 122.241 C 191.073 129.820,186.642 133.984,186.138 133.984 C 185.633 133.984,180.950 129.585,172.935 121.582 C 166.103 114.761,160.615 109.443,160.738 109.766 M183.594 119.832 C 183.594 120.893,186.212 122.680,186.755 121.989 C 187.247 121.362,187.238 121.341,186.669 121.786 C 186.127 122.209,185.853 122.077,184.813 120.893 C 184.143 120.129,183.594 119.651,183.594 119.832 M204.534 124.837 C 204.201 125.705,204.200 125.702,205.176 126.222 C 205.970 126.646,206.004 126.629,205.523 126.045 C 205.230 125.691,205.093 125.135,205.217 124.810 C 205.342 124.485,205.293 124.219,205.108 124.219 C 204.923 124.219,204.664 124.497,204.534 124.837 M207.446 127.960 C 208.185 128.836,208.868 129.489,208.965 129.412 C 209.062 129.334,208.457 128.618,207.622 127.819 L 206.104 126.367 207.446 127.960 M198.884 129.980 C 198.458 130.977,198.468 131.000,199.017 130.297 C 199.343 129.880,199.829 129.399,200.098 129.228 C 200.457 129.000,200.422 128.917,199.965 128.912 C 199.624 128.909,199.137 129.390,198.884 129.980 M217.188 129.317 C 217.188 129.543,214.727 132.207,211.719 135.239 C 205.612 141.393,205.903 140.944,207.215 142.177 C 208.300 143.196,208.657 143.051,210.537 140.825 C 212.011 139.080,217.968 133.166,219.531 131.895 L 220.898 130.783 219.587 131.505 C 218.866 131.902,215.997 134.582,213.211 137.461 L 208.147 142.695 207.319 141.868 L 206.492 141.041 212.230 135.313 C 217.675 129.879,218.487 128.906,217.578 128.906 C 217.363 128.906,217.188 129.091,217.188 129.317 M201.395 131.082 C 200.720 131.757,200.543 133.006,201.178 132.613 C 201.397 132.478,201.480 132.213,201.363 132.024 C 200.895 131.267,202.544 130.928,203.912 131.500 C 205.068 131.984,205.185 131.986,204.688 131.513 C 203.729 130.603,202.089 130.388,201.395 131.082 M208.452 134.506 C 206.762 136.260,205.229 137.959,205.045 138.281 C 204.595 139.068,203.368 138.328,203.195 137.167 C 203.114 136.623,202.790 136.328,202.271 136.328 C 201.831 136.328,200.788 135.646,199.954 134.812 C 199.120 133.977,198.438 133.430,198.438 133.594 C 198.438 134.111,201.536 136.719,202.150 136.719 C 202.471 136.719,202.734 137.064,202.734 137.486 C 202.734 137.908,203.093 138.445,203.530 138.680 C 204.445 139.169,205.859 138.845,205.859 138.147 C 205.859 137.616,207.170 136.158,209.884 133.670 C 210.893 132.745,211.719 131.822,211.719 131.619 C 211.719 131.096,211.828 131.000,208.452 134.506 M205.775 132.868 C 206.202 133.415,206.115 133.635,205.189 134.355 C 204.525 134.870,204.418 135.047,204.915 134.809 C 206.362 134.113,206.740 133.377,205.962 132.767 C 205.347 132.284,205.327 132.295,205.775 132.868 M219.920 136.525 C 219.417 137.061,219.123 137.500,219.268 137.500 C 219.646 137.500,221.190 135.904,220.998 135.711 C 220.909 135.623,220.424 135.989,219.920 136.525 M216.437 137.146 C 216.420 137.489,216.802 138.104,217.285 138.514 C 218.157 139.251,218.159 139.251,217.531 138.477 C 217.183 138.047,216.802 137.432,216.683 137.109 C 216.501 136.612,216.463 136.618,216.437 137.146 M222.116 137.924 C 221.061 138.754,220.783 139.453,221.507 139.453 C 221.735 139.453,221.825 139.298,221.708 139.109 C 221.591 138.919,222.038 138.501,222.702 138.180 C 223.365 137.859,223.735 137.489,223.523 137.358 C 223.312 137.227,222.679 137.482,222.116 137.924 M214.743 141.660 C 213.509 142.874,212.500 144.046,212.500 144.265 C 212.500 144.483,212.544 144.584,212.598 144.489 C 212.651 144.394,213.744 143.222,215.027 141.885 C 217.938 138.849,217.750 138.701,214.743 141.660 M220.593 141.805 C 221.284 142.531,221.916 143.045,221.997 142.949 C 222.078 142.852,221.512 142.259,220.740 141.630 L 219.336 140.486 220.593 141.805 M224.121 143.391 C 223.179 143.940,223.265 144.806,224.316 145.346 C 226.786 146.614,228.555 149.447,227.344 150.195 C 227.129 150.328,226.953 150.624,226.953 150.852 C 226.953 151.114,227.170 151.088,227.539 150.781 C 228.744 149.781,228.244 148.227,226.097 146.295 C 224.309 144.689,224.124 144.382,224.537 143.720 C 225.073 142.863,225.054 142.847,224.121 143.391 M214.988 145.159 C 214.842 145.566,214.660 146.018,214.582 146.164 C 214.504 146.311,214.663 146.559,214.935 146.715 C 215.207 146.872,215.304 146.861,215.150 146.691 C 214.997 146.521,215.055 146.038,215.280 145.618 C 215.504 145.198,215.590 144.757,215.471 144.637 C 215.351 144.517,215.134 144.752,214.988 145.159 M212.059 145.117 C 211.644 145.835,212.471 147.884,213.566 148.850 L 214.648 149.805 213.709 148.739 C 213.193 148.153,212.661 147.010,212.528 146.200 C 212.394 145.390,212.183 144.902,212.059 145.117 M216.371 149.292 C 215.935 149.602,215.963 149.637,216.504 149.463 C 217.205 149.238,217.293 149.440,217.249 151.172 L 217.225 152.148 217.558 151.172 C 218.193 149.310,217.621 148.403,216.371 149.292 M220.057 150.603 C 219.693 151.550,220.200 151.721,220.685 150.815 C 220.988 150.250,220.993 150.000,220.705 150.000 C 220.475 150.000,220.184 150.271,220.057 150.603 M227.710 153.466 C 224.319 156.889,223.550 157.919,225.298 156.693 C 225.998 156.202,226.471 155.637,226.349 155.439 C 226.226 155.240,226.311 155.078,226.538 155.078 C 227.158 155.078,230.078 152.328,230.078 151.745 C 230.078 151.466,230.298 151.148,230.566 151.040 C 230.835 150.932,230.879 150.851,230.664 150.860 C 230.449 150.869,229.120 152.042,227.710 153.466 M217.578 152.596 C 217.578 152.807,218.149 153.495,218.848 154.126 L 220.117 155.273 218.945 153.908 C 218.301 153.157,217.729 152.469,217.676 152.378 C 217.622 152.288,217.578 152.386,217.578 152.596 M224.761 152.726 C 224.308 152.910,223.830 153.338,223.699 153.678 C 223.347 154.597,223.959 154.428,225.000 153.320 C 225.997 152.259,225.986 152.232,224.761 152.726 M230.595 154.822 C 230.157 155.325,229.466 155.986,229.060 156.290 C 228.653 156.595,227.969 157.281,227.539 157.816 L 226.758 158.789 227.733 158.008 C 229.560 156.544,232.024 153.906,231.564 153.906 C 231.469 153.906,231.033 154.318,230.595 154.822 M221.387 155.727 C 221.655 155.836,221.875 156.226,221.875 156.595 C 221.875 157.507,222.645 158.208,223.613 158.178 C 224.365 158.155,224.360 158.132,223.529 157.798 C 223.043 157.603,222.476 156.999,222.270 156.456 C 222.063 155.913,221.670 155.483,221.396 155.500 C 221.005 155.524,221.003 155.572,221.387 155.727 M230.217 158.860 L 227.312 161.861 226.481 161.030 C 225.759 160.308,225.720 160.106,226.183 159.494 C 226.690 158.823,226.680 158.821,225.977 159.465 C 225.213 160.164,226.332 162.109,227.499 162.109 C 228.097 162.109,232.376 157.512,232.084 157.184 C 231.947 157.032,232.141 157.016,232.515 157.150 C 232.938 157.302,233.159 157.215,233.101 156.920 C 232.886 155.825,235.169 156.181,236.328 157.422 C 237.283 158.444,237.589 158.573,238.170 158.201 C 238.834 157.775,238.833 157.764,238.157 157.976 C 237.675 158.128,237.130 157.823,236.462 157.029 C 234.770 155.018,233.606 155.359,230.217 158.860 M238.496 158.953 C 238.374 159.150,238.552 159.590,238.891 159.929 C 239.667 160.705,240.101 160.742,239.467 159.978 C 239.208 159.665,239.109 159.226,239.247 159.001 C 239.386 158.777,239.323 158.594,239.109 158.594 C 238.894 158.594,238.618 158.755,238.496 158.953 M241.431 161.944 C 242.169 162.820,242.853 163.473,242.949 163.396 C 243.046 163.319,242.442 162.602,241.607 161.803 L 240.088 160.352 241.431 161.944 M235.742 162.500 L 234.570 162.798 235.621 162.844 C 236.200 162.870,236.781 162.715,236.914 162.500 C 237.047 162.285,237.101 162.130,237.035 162.156 C 236.968 162.181,236.387 162.336,235.742 162.500 M233.353 163.190 C 233.114 163.347,232.784 163.916,232.621 164.453 C 232.458 164.990,232.391 165.342,232.471 165.234 C 232.551 165.127,233.043 164.556,233.564 163.965 C 234.450 162.959,234.337 162.542,233.353 163.190 M235.234 165.313 C 234.977 165.570,234.777 166.054,234.790 166.387 C 234.806 166.758,234.952 166.652,235.168 166.113 C 235.729 164.718,237.663 164.929,239.297 166.563 C 240.027 167.293,240.625 167.751,240.625 167.580 C 240.625 166.041,236.317 164.230,235.234 165.313 M242.090 169.086 C 238.725 172.472,237.823 173.705,239.551 172.559 C 240.034 172.238,240.430 171.784,240.430 171.550 C 240.430 171.316,241.133 170.494,241.992 169.723 C 245.253 166.800,245.703 166.347,245.703 165.991 C 245.703 165.442,245.756 165.396,242.090 169.086 M232.453 167.240 C 232.418 167.949,235.270 170.704,236.036 170.702 C 236.304 170.701,235.996 170.374,235.352 169.976 C 234.066 169.182,233.033 168.096,232.699 167.188 C 232.519 166.699,232.478 166.708,232.453 167.240 M239.055 168.564 C 238.755 168.925,238.238 169.068,237.738 168.929 C 237.081 168.745,237.033 168.782,237.500 169.109 C 238.361 169.712,238.816 169.624,239.362 168.750 C 239.939 167.827,239.757 167.717,239.055 168.564 M236.719 171.861 C 236.719 172.069,237.114 172.446,237.598 172.699 C 238.472 173.158,238.473 173.156,237.732 172.322 C 236.906 171.391,236.719 171.306,236.719 171.861 M113.574 297.559 C 148.433 297.614,205.474 297.614,240.332 297.559 C 275.190 297.504,246.670 297.459,176.953 297.459 C 107.236 297.459,78.716 297.504,113.574 297.559 M96.669 302.051 C 96.569 302.319,96.443 307.285,96.388 313.086 L 96.289 323.633 84.900 323.633 C 78.636 323.633,73.593 323.765,73.693 323.926 C 73.933 324.314,95.762 324.294,96.375 323.904 C 96.790 323.640,97.369 301.561,96.960 301.562 C 96.900 301.562,96.769 301.782,96.669 302.051 M84.766 304.964 C 85.303 305.057,85.962 305.418,86.230 305.766 C 86.499 306.114,86.719 306.225,86.719 306.012 C 86.719 305.298,85.790 304.687,84.785 304.741 L 83.789 304.794 84.766 304.964 M109.872 308.594 C 109.872 309.561,109.948 309.956,110.041 309.473 C 110.134 308.989,110.134 308.198,110.041 307.715 C 109.948 307.231,109.872 307.627,109.872 308.594 M84.221 308.040 C 83.865 308.969,83.947 309.255,84.381 308.594 C 84.723 308.073,84.808 308.073,85.150 308.594 C 85.584 309.255,85.666 308.969,85.310 308.040 C 85.179 307.700,84.934 307.422,84.766 307.422 C 84.597 307.422,84.352 307.700,84.221 308.040 M111.719 308.961 C 111.719 309.404,111.895 309.766,112.109 309.766 C 112.324 309.766,112.500 309.512,112.500 309.203 C 112.500 308.893,112.324 308.531,112.109 308.398 C 111.895 308.266,111.719 308.519,111.719 308.961 M124.246 310.817 C 124.334 311.831,124.945 312.691,124.973 311.839 C 124.988 311.369,124.824 310.875,124.609 310.742 C 124.395 310.609,124.231 310.643,124.246 310.817 M129.688 310.890 C 129.688 311.131,129.182 311.328,128.563 311.328 C 127.945 311.328,127.198 311.636,126.903 312.012 C 126.430 312.615,126.440 312.639,126.983 312.216 C 127.638 311.705,133.259 311.262,133.886 311.671 C 134.090 311.805,134.358 312.178,134.481 312.500 C 134.668 312.991,134.709 312.983,134.735 312.450 C 134.786 311.386,133.718 310.815,132.150 311.070 C 131.331 311.203,130.493 311.120,130.200 310.877 C 129.829 310.568,129.688 310.572,129.688 310.890 M100.977 311.360 C 100.386 311.638,100.540 311.677,101.608 311.520 C 103.332 311.267,104.287 311.591,104.328 312.444 C 104.348 312.870,104.426 312.917,104.560 312.585 C 105.088 311.270,102.817 310.494,100.977 311.360 M116.799 311.385 C 116.798 311.523,117.867 311.627,119.174 311.615 C 120.699 311.600,121.338 311.473,120.957 311.259 C 120.291 310.887,116.802 310.992,116.799 311.385 M114.360 311.604 C 114.846 311.698,115.549 311.694,115.923 311.597 C 116.296 311.499,115.898 311.422,115.039 311.427 C 114.180 311.431,113.874 311.511,114.360 311.604 M123.047 314.476 C 123.047 316.255,123.201 317.529,123.400 317.406 C 123.829 317.141,123.782 311.328,123.351 311.328 C 123.184 311.328,123.047 312.745,123.047 314.476 M113.784 313.867 C 113.787 314.941,113.862 315.334,113.952 314.741 C 114.042 314.147,114.040 313.268,113.947 312.788 C 113.854 312.307,113.781 312.793,113.784 313.867 M106.367 314.844 C 106.367 316.025,106.440 316.509,106.530 315.918 C 106.619 315.327,106.619 314.360,106.530 313.770 C 106.440 313.179,106.367 313.662,106.367 314.844 M126.809 313.770 C 126.434 315.168,126.525 317.578,126.953 317.578 C 127.170 317.578,127.344 316.536,127.344 315.234 C 127.344 312.749,127.193 312.336,126.809 313.770 M136.427 314.258 C 136.431 315.117,136.511 315.423,136.604 314.937 C 136.698 314.451,136.694 313.748,136.597 313.374 C 136.499 313.001,136.422 313.398,136.427 314.258 M109.887 315.430 C 109.889 316.719,109.962 317.199,110.049 316.497 C 110.136 315.795,110.134 314.740,110.045 314.153 C 109.956 313.566,109.884 314.141,109.887 315.430 M81.830 314.463 C 81.683 314.701,81.668 315.001,81.797 315.130 C 81.926 315.259,82.031 315.160,82.031 314.909 C 82.031 314.330,87.348 314.278,87.633 314.854 C 87.743 315.074,87.787 315.030,87.732 314.756 C 87.602 314.105,82.216 313.838,81.830 314.463 M132.109 314.531 C 131.541 315.100,131.502 315.884,132.027 316.208 C 132.255 316.349,132.309 316.176,132.159 315.784 C 131.999 315.367,132.173 314.925,132.628 314.592 C 133.027 314.301,133.178 314.063,132.965 314.063 C 132.752 314.063,132.367 314.273,132.109 314.531 M134.295 315.214 C 134.202 315.847,134.249 316.289,134.399 316.196 C 134.790 315.955,135.106 314.063,134.756 314.063 C 134.595 314.063,134.388 314.581,134.295 315.214 M111.719 315.582 C 111.719 315.773,112.068 316.344,112.496 316.851 L 113.273 317.773 112.663 316.504 C 112.057 315.244,111.719 314.914,111.719 315.582 M80.707 317.801 C 80.538 318.242,80.152 318.390,79.499 318.265 C 78.971 318.164,78.632 318.232,78.746 318.416 C 79.079 318.954,80.331 318.800,80.867 318.155 C 81.139 317.827,81.270 317.468,81.159 317.357 C 81.047 317.245,80.844 317.445,80.707 317.801 M88.293 317.433 C 88.274 318.128,89.347 318.832,90.118 318.632 C 90.681 318.486,90.650 318.441,89.961 318.405 C 89.488 318.380,88.922 318.052,88.703 317.676 C 88.484 317.300,88.300 317.190,88.293 317.433 M118.848 317.847 C 119.224 317.946,119.839 317.946,120.215 317.847 C 120.591 317.749,120.283 317.669,119.531 317.669 C 118.779 317.669,118.472 317.749,118.848 317.847 " stroke="none" fill="#4c7d99" fill-rule="evenodd"></path><path id="path4" d="M209.766 133.789 C 209.261 134.326,209.011 134.760,209.209 134.753 C 209.543 134.742,211.153 132.813,210.829 132.813 C 210.749 132.813,210.270 133.252,209.766 133.789 M241.016 161.914 C 241.744 162.666,242.429 163.281,242.536 163.281 C 242.643 163.281,242.135 162.666,241.406 161.914 C 240.677 161.162,239.993 160.547,239.886 160.547 C 239.778 160.547,240.287 161.162,241.016 161.914 M241.700 169.991 C 240.786 170.888,240.390 171.372,240.820 171.065 C 241.864 170.320,243.868 168.359,243.586 168.359 C 243.462 168.359,242.614 169.094,241.700 169.991 M109.855 311.719 C 109.872 312.796,109.946 313.060,110.045 312.402 C 110.135 311.812,110.372 311.328,110.573 311.328 C 110.773 311.328,110.935 311.021,110.932 310.645 C 110.927 310.110,110.852 310.077,110.588 310.493 C 110.303 310.943,110.218 310.943,110.039 310.493 C 109.923 310.201,109.840 310.752,109.855 311.719 M126.823 312.370 C 126.680 312.513,126.574 312.996,126.587 313.444 C 126.610 314.192,126.642 314.182,126.986 313.322 C 127.369 312.366,127.289 311.903,126.823 312.370 M102.289 314.831 C 101.782 315.253,101.587 315.605,101.855 315.612 C 102.124 315.619,102.344 315.449,102.344 315.234 C 102.344 315.020,102.794 314.844,103.343 314.844 C 103.910 314.844,104.238 314.675,104.102 314.453 C 103.748 313.881,103.323 313.970,102.289 314.831 M119.350 314.590 C 118.699 315.066,118.750 315.099,119.866 314.935 C 120.547 314.835,121.199 314.598,121.317 314.408 C 121.652 313.866,120.151 314.004,119.350 314.590 M132.813 314.453 C 132.356 314.748,132.464 314.833,133.301 314.838 C 133.892 314.841,134.375 314.668,134.375 314.453 C 134.375 313.959,133.577 313.959,132.813 314.453 M105.078 317.885 C 105.078 318.054,105.430 318.192,105.859 318.192 C 106.289 318.192,106.641 318.054,106.641 317.885 C 106.641 317.716,106.289 317.578,105.859 317.578 C 105.430 317.578,105.078 317.716,105.078 317.885 M107.813 317.915 C 107.813 318.100,108.252 318.167,108.789 318.064 C 109.326 317.962,109.766 317.810,109.766 317.728 C 109.766 317.646,109.326 317.578,108.789 317.578 C 108.252 317.578,107.813 317.730,107.813 317.915 M124.868 317.867 C 124.661 318.201,126.770 318.282,127.099 317.953 C 127.215 317.837,126.802 317.703,126.181 317.656 C 125.560 317.608,124.969 317.703,124.868 317.867 M131.506 318.066 C 131.605 318.228,132.105 318.359,132.617 318.359 C 133.129 318.359,133.629 318.228,133.729 318.066 C 133.828 317.905,133.328 317.773,132.617 317.773 C 131.906 317.773,131.406 317.905,131.506 318.066 M135.547 317.969 C 136.304 318.458,136.719 318.458,136.719 317.969 C 136.719 317.754,136.323 317.581,135.840 317.584 C 135.129 317.589,135.073 317.663,135.547 317.969 " stroke="none" fill="#658ca6" fill-rule="evenodd"></path></g></svg>